<svg width="38" height="38" viewBox="0 0 38 38" fill="none" xmlns="http://www.w3.org/2000/svg">
<path d="M35.2 21.5C36.5807 21.5 37.7 20.3807 37.7 19C37.7 17.6193 36.5807 16.5 35.2 16.5V21.5ZM1.60958 17.2322C0.633266 18.2085 0.633266 19.7915 1.60958 20.7678L17.5195 36.6777C18.4958 37.654 20.0787 37.654 21.055 36.6777C22.0313 35.7014 22.0313 34.1184 21.055 33.1421L6.91288 19L21.055 4.85786C22.0313 3.88155 22.0313 2.29864 21.055 1.32233C20.0787 0.34602 18.4958 0.34602 17.5195 1.32233L1.60958 17.2322ZM35.2 19V16.5L3.37734 16.5V19V21.5L35.2 21.5V19Z" fill="#FDFDFD"/>
</svg>
