<svg width="84" height="84" viewBox="0 0 84 84" fill="none" xmlns="http://www.w3.org/2000/svg">
<circle cx="42" cy="42" r="42" fill="#F5F17A"/>
<path d="M34.9455 24.0364V20.8364C34.9455 19.4506 33.8221 18.3273 32.4364 18.3273H32.2182C30.9529 18.3273 29.9273 19.3529 29.9273 20.6182V20.6182M34.9455 24.0364H49.1273M34.9455 24.0364V29.7091M49.1273 24.0364V20.5273C49.1273 19.1315 50.2588 18 51.6545 18V18C53.0503 18 54.1818 19.1315 54.1818 20.5273V20.6182M49.1273 24.0364V29.7091M49.1273 29.7091V33.4727C49.1273 34.8685 50.2588 36 51.6545 36V36C53.0503 36 54.1818 34.8685 54.1818 33.4727V33.0909M49.1273 29.7091H34.9455M34.9455 29.7091V33.4909C34.9455 34.8766 33.8221 36 32.4364 36V36C31.0506 36 29.9273 34.8766 29.9273 33.4909V33.0909M54.1818 20.6182V20.6182C56.3709 20.6182 58.1455 22.3928 58.1455 24.5818V29.1273C58.1455 31.3163 56.3709 33.0909 54.1818 33.0909V33.0909M54.1818 20.6182V33.0909M29.9273 20.6182V20.6182C27.7583 20.6182 26 22.3765 26 24.5455V29.1636C26 31.3326 27.7583 33.0909 29.9273 33.0909V33.0909M29.9273 20.6182V33.0909" stroke="#060606" stroke-width="2"/>
<path d="M41.823 67.5418V56.248M41.823 56.248C39.4707 50.1199 36.8038 47.6903 30.7981 44.9542C30.7981 44.9542 28.2424 42.581 26.1392 40.3917C25.3362 39.5559 24.1046 38.9462 23.1317 39.5762V39.5762M41.823 56.248C43.9963 50.4673 45.9532 47.7386 52.4446 44.9542C56.6847 40.7357 56.9918 39.7127 59.3904 39.5897C59.776 39.5699 60.1737 39.6097 60.5116 39.7966V39.7966M27.9747 50.3322C27.9747 50.3322 19.5425 41.9001 23.1317 39.5762M55.4025 50.3322C59.7277 44.6633 62.7317 41.0249 60.5116 39.7966M31.2014 67.5418V63.2C31.2014 61.4691 30.3062 59.8613 28.8348 58.9497L22.6505 55.118C20.2217 53.6133 18.5471 51.1353 18.0734 48.3177C15.5349 33.2223 15.1605 27.722 17.622 27.4758C20.5653 27.1815 20.9109 30.499 23.1317 39.5762M52.4446 67.5418V65.952C52.4446 62.5076 54.2172 59.3056 57.1362 57.4772L61.0154 55.0474C63.3536 53.5828 64.9854 51.2261 65.4581 48.508C66.6612 41.5902 68.6285 28.5425 66.5618 27.4758C62.3939 25.3247 60.5116 39.7966 60.5116 39.7966" stroke="#060606" stroke-width="2" stroke-linecap="round"/>
</svg>
