<svg width="84" height="84" viewBox="0 0 84 84" fill="none" xmlns="http://www.w3.org/2000/svg">
<rect width="84" height="84" rx="10" fill="#F5F17A"/>
<path d="M34.2964 17.0424V13.2698C34.2964 11.6748 33.0034 10.3818 31.4084 10.3818H31.1931C29.717 10.3818 28.5204 11.5784 28.5204 13.0545V13.0545M34.2964 17.0424H50.6199M34.2964 17.0424V23.6606M50.6199 17.0424V12.9089C50.6199 11.3024 51.9223 10 53.5288 10V10C55.1354 10 56.4378 11.3024 56.4378 12.9089V13.0545M50.6199 17.0424V23.6606M50.6199 23.6606V28.0911C50.6199 29.6976 51.9223 31 53.5288 31V31C55.1354 31 56.4378 29.6976 56.4378 28.0911V27.6061M50.6199 23.6606H34.2964M34.2964 23.6606V28.112C34.2964 29.707 33.0034 31 31.4084 31V31C29.8134 31 28.5204 29.707 28.5204 28.112V27.6061M56.4378 13.0545V13.0545C58.9574 13.0545 61 15.0971 61 17.6168V23.0438C61 25.5635 58.9574 27.6061 56.4378 27.6061V27.6061M56.4378 13.0545V27.6061M28.5204 13.0545V13.0545C26.0238 13.0545 24 15.0784 24 17.5749V23.0857C24 25.5822 26.0238 27.6061 28.5204 27.6061V27.6061M28.5204 13.0545V27.6061" stroke="#060606" stroke-width="3"/>
<path d="M42.1293 71V57.8233M42.1293 57.8233C39.389 50.6736 36.2821 47.839 29.2858 44.6467C29.2858 44.6467 26.3077 41.8772 23.8574 39.3226C22.9227 38.3481 21.4877 37.6374 20.3547 38.3721V38.3721M42.1293 57.8233C44.6612 51.0789 46.9409 47.8954 54.503 44.6467C59.4425 39.725 59.8004 38.5315 62.5945 38.3878C63.0438 38.3647 63.5072 38.4112 63.9007 38.6293V38.6293M25.9966 50.9213C25.9966 50.9213 16.1735 41.0834 20.3547 38.3721M57.9488 50.9213C62.9876 44.3073 66.4871 40.0624 63.9007 38.6293M29.7557 71V65.468C29.7557 63.7383 28.8617 62.1315 27.3919 61.2195L19.1605 56.1119C16.734 54.6063 15.0622 52.1274 14.5867 49.3116C11.5176 31.1384 11.0288 24.5456 13.9362 24.2544C17.3649 23.911 17.7676 27.7816 20.3547 38.3721M54.503 71V68.2178C54.503 64.7758 56.2732 61.5757 59.1889 59.7466L65.0957 56.0412C67.4317 54.5758 69.061 52.2161 69.5395 49.5003C70.9229 41.649 73.4289 25.5363 70.949 24.2544C66.0935 21.7447 63.9007 38.6293 63.9007 38.6293" stroke="#060606" stroke-width="4" stroke-linecap="round"/>
</svg>
