<svg width="289" height="355" viewBox="0 0 289 355" fill="none" xmlns="http://www.w3.org/2000/svg">
<g filter="url(#filter0_d_114_3)">
<path d="M169.797 34.2036C171.72 30.8298 176.839 31.8999 177.25 35.7617L182.139 81.7421C182.415 84.3358 185.059 85.9759 187.505 85.0704L230.869 69.0177C234.511 67.6694 237.744 71.7793 235.577 75.0016L209.766 113.368C208.311 115.532 209.282 118.488 211.738 119.366L255.275 134.943C258.931 136.251 258.767 141.478 255.035 142.553L210.602 155.353C208.095 156.075 206.939 158.964 208.256 161.215L231.595 201.133C233.555 204.485 230.069 208.383 226.519 206.808L184.254 188.052C181.87 186.994 179.128 188.464 178.689 191.035L170.909 236.616C170.256 240.444 165.08 241.189 163.373 237.7L143.052 196.165C141.906 193.822 138.86 193.186 136.871 194.873L101.613 224.789C98.6517 227.302 94.2078 224.545 95.1427 220.776L106.274 175.896C106.902 173.365 104.978 170.919 102.37 170.933L56.1311 171.187C52.2476 171.208 50.615 166.24 53.7541 163.954L91.1296 136.729C93.2379 135.193 93.3361 132.083 91.3289 130.418L55.7449 100.89C52.7563 98.4098 54.699 93.5547 58.5734 93.8209L104.704 96.9902C107.306 97.169 109.381 94.8496 108.914 92.2834L100.635 46.7909C99.9398 42.9701 104.549 40.4997 107.346 43.194L140.647 75.2742C142.525 77.0838 145.605 76.6404 146.897 74.3744L169.797 34.2036Z" fill="#F58A83"/>
</g>
<g filter="url(#filter1_d_114_3)">
<path d="M159.864 105.301C160.456 104.29 162.004 104.946 161.69 106.074L141.457 178.77C141.239 179.551 141.993 180.253 142.756 179.98L213.827 154.621C214.93 154.227 215.694 155.725 214.728 156.387L152.501 199.07C151.832 199.529 151.958 200.55 152.718 200.833L223.462 227.089C224.56 227.497 224.183 229.136 223.018 229.022L147.912 221.72C147.105 221.641 146.545 222.505 146.946 223.21L184.262 288.797C184.841 289.815 183.499 290.828 182.679 289.992L129.839 236.121C129.271 235.542 128.287 235.844 128.141 236.642L114.568 310.87C114.357 312.022 112.678 311.936 112.587 310.768L106.736 235.535C106.673 234.727 105.726 234.326 105.101 234.843L46.9903 282.981C46.0883 283.728 44.8577 282.582 45.5388 281.629L89.4154 220.237C89.8867 219.578 89.4188 218.661 88.6082 218.656L13.1502 218.178C11.9789 218.171 11.7728 216.502 12.907 216.21L85.9805 197.384C86.7655 197.182 86.9963 196.179 86.3786 195.654L28.8814 146.785C27.9889 146.026 28.9037 144.615 29.9604 145.12L98.0388 177.67C98.7701 178.02 99.5917 177.399 99.456 176.6L86.8231 102.206C86.627 101.051 88.2346 100.558 88.7193 101.624L119.948 170.319C120.284 171.057 121.311 171.11 121.721 170.41L159.864 105.301Z" fill="#ABF479"/>
</g>
<defs>
<filter id="filter0_d_114_3" x="48.1013" y="32.181" width="213.826" height="215.763" filterUnits="userSpaceOnUse" color-interpolation-filters="sRGB">
<feFlood flood-opacity="0" result="BackgroundImageFix"/>
<feColorMatrix in="SourceAlpha" type="matrix" values="0 0 0 0 0 0 0 0 0 0 0 0 0 0 0 0 0 0 127 0" result="hardAlpha"/>
<feOffset dy="4"/>
<feGaussianBlur stdDeviation="2"/>
<feComposite in2="hardAlpha" operator="out"/>
<feColorMatrix type="matrix" values="0 0 0 0 0 0 0 0 0 0 0 0 0 0 0 0 0 0 0.25 0"/>
<feBlend mode="normal" in2="BackgroundImageFix" result="effect1_dropShadow_114_3"/>
<feBlend mode="normal" in="SourceGraphic" in2="effect1_dropShadow_114_3" result="shape"/>
</filter>
<filter id="filter1_d_114_3" x="8.15588" y="101.035" width="219.961" height="218.655" filterUnits="userSpaceOnUse" color-interpolation-filters="sRGB">
<feFlood flood-opacity="0" result="BackgroundImageFix"/>
<feColorMatrix in="SourceAlpha" type="matrix" values="0 0 0 0 0 0 0 0 0 0 0 0 0 0 0 0 0 0 127 0" result="hardAlpha"/>
<feOffset dy="4"/>
<feGaussianBlur stdDeviation="2"/>
<feComposite in2="hardAlpha" operator="out"/>
<feColorMatrix type="matrix" values="0 0 0 0 0 0 0 0 0 0 0 0 0 0 0 0 0 0 0.25 0"/>
<feBlend mode="normal" in2="BackgroundImageFix" result="effect1_dropShadow_114_3"/>
<feBlend mode="normal" in="SourceGraphic" in2="effect1_dropShadow_114_3" result="shape"/>
</filter>
</defs>
</svg>
